# xmcd CD database file
#
# Track frame offsets:
#	150
#	13611
#	26525
#	40812
#	54116
#	66482
#	78805
#	93104
#	106999
#	121857
#	136528
#	149036
#	164532
#	176771
#	188852
#	202349
#	213733
#	226213
#	239552
#	252532
#	264674
#	275902
#	289333
#	304230
#
# Disc length: 4223 seconds
#
# Revision: 0
# Processed by: cddbd v1.5.2PL0 Copyright (c) Steve Scherf et al.
# Submitted via: CDex 1.70beta2
#
DISCID=6d107d18
DTITLE=The Philip Lewis Rhythm Maniacs - The Hottest of the Philip Lewis Rhythm Maniacs Recordings - 1928-1930 - Retrieval
DYEAR=1928
DGENRE=Jazz
TTITLE0=My Kinda Love
TTITLE1=My Troubles are Over
TTITLE2=Doin' the New Low-Down
TTITLE3=There's One Thing Remains
TTITLE4=Down Among the Sugar-Cane
TTITLE5=Building a Nest For Mary
TTITLE6=Diga Diga Doo
TTITLE7=What is This Thing Called Love
TTITLE8=I'm Crooning a Tune About June
TTITLE9=Imagination Goes a Long, Long Way
TTITLE10=Little Pal
TTITLE11=Red Hair and Freckles
TTITLE12=Why Can't You
TTITLE13=Come On, Baby
TTITLE14=He's a Good Man to Have Around
TTITLE15=Tiger Rag
TTITLE16=I'm Feathering a Nest
TTITLE17=Raisin' the Roof
TTITLE18=Button Up Your Overcoat
TTITLE19=Honey
TTITLE20=It's Tight Like That
TTITLE21=That's a Plenty
TTITLE22=She's My Slip of a Girl
TTITLE23=Birmingham Breakdown
EXTD=YEAR: 1928
EXTT0=
EXTT1=
EXTT2=
EXTT3=
EXTT4=
EXTT5=
EXTT6=
EXTT7=
EXTT8=
EXTT9=
EXTT10=
EXTT11=
EXTT12=
EXTT13=
EXTT14=
EXTT15=
EXTT16=
EXTT17=
EXTT18=
EXTT19=
EXTT20=
EXTT21=
EXTT22=
EXTT23=
PLAYORDER=
